<?xml version="1.0" encoding="UTF-8"?>
<svg width="26px" height="26px" viewBox="0 0 26 26" version="1.1" xmlns="http://www.w3.org/2000/svg" xmlns:xlink="http://www.w3.org/1999/xlink">
    <!-- Generator: Sketch 49 (51002) - http://www.bohemiancoding.com/sketch -->
    <title>ICON_Discord</title>
    <desc>Created with Sketch.</desc>
    <defs>
        <linearGradient x1="97.8794643%" y1="2.12053571%" x2="0%" y2="100%" id="linearGradient-1">
            <stop stop-color="#4598FF" offset="0%"></stop>
            <stop stop-color="#2A43C1" offset="100%"></stop>
        </linearGradient>
        <polygon id="path-2" points="2.74285714e-05 0 12 0 12 13.999972 2.74285714e-05 13.999972"></polygon>
    </defs>
    <g id="Symbols" stroke="none" stroke-width="1" fill="none" fill-rule="evenodd">
        <g id="FOOTER" transform="translate(-1162.000000, -68.000000)">
            <g id="Github">
                <g transform="translate(1052.000000, 68.000000)">
                    <g id="ICON_Discord" transform="translate(110.000000, 0.000000)">
                        <circle id="Purple-gradient-circle" fill="url(#linearGradient-1)" cx="13" cy="13" r="13"></circle>
                        <g id="Discord-logo" transform="translate(7.000000, 6.000000)">
                            <path d="M4.75885029,5.872993 C4.36799314,5.872993 4.05942171,6.222993 4.05942171,6.649993 C4.05942171,7.076993 4.37485029,7.426993 4.75885029,7.426993 C5.14970743,7.426993 5.45827886,7.076993 5.45827886,6.649993 C5.465136,6.222993 5.14970743,5.872993 4.75885029,5.872993" id="Fill-1" fill="#FFFFFF"></path>
                            <path d="M7.26174171,5.872993 C6.87088457,5.872993 6.56231314,6.222993 6.56231314,6.649993 C6.56231314,7.076993 6.87767314,7.426993 7.26174171,7.426993 C7.65253029,7.426993 7.96110171,7.076993 7.96110171,6.649993 C7.96110171,6.222993 7.65253029,5.872993 7.26174171,5.872993" id="Fill-3" fill="#FFFFFF"></path>
                            <g id="Group-7">
                                <mask id="mask-3" fill="white">
                                    <use xlink:href="#path-2"></use>
                                </mask>
                                <g id="Clip-6"></g>
                                <path d="M7.947456,9.141972 C7.947456,9.141972 7.70053029,8.840972 7.494816,8.574972 C8.39317029,8.315972 8.73602743,7.741972 8.73602743,7.741972 C8.454816,7.930972 8.187456,8.064042 7.947456,8.154972 C7.60459886,8.301972 7.27538743,8.399972 6.95317029,8.455972 C6.294816,8.581972 5.691456,8.546972 5.17717029,8.449042 C4.78624457,8.371972 4.45031314,8.259972 4.16910171,8.148042 C4.011456,8.084972 3.84002743,8.008042 3.66859886,7.909972 C3.64802743,7.895972 3.627456,7.889042 3.60688457,7.874972 C3.59317029,7.868042 3.58624457,7.860972 3.579456,7.854042 C3.45602743,7.784042 3.387456,7.734972 3.387456,7.734972 C3.387456,7.734972 3.71659886,8.294972 4.587456,8.560972 C4.38174171,8.826972 4.12802743,9.141972 4.12802743,9.141972 C2.61259886,9.093042 2.03659886,8.078042 2.03659886,8.078042 C2.03659886,5.824042 3.02402743,3.996972 3.02402743,3.996972 C4.011456,3.240972 4.95088457,3.261972 4.95088457,3.261972 L5.019456,3.345972 C3.78517029,3.709972 3.21602743,4.262972 3.21602743,4.262972 C3.21602743,4.262972 3.36688457,4.179042 3.62053029,4.059972 C4.35431314,3.730972 4.93717029,3.639972 5.17717029,3.619042 C5.21831314,3.611972 5.25259886,3.604972 5.29374171,3.604972 C5.71195886,3.549042 6.18517029,3.534972 6.67888457,3.590972 C7.33031314,3.667972 8.02967314,3.864042 8.74288457,4.262972 C8.74288457,4.262972 8.20110171,3.737972 7.03538743,3.374042 L7.131456,3.261972 C7.131456,3.261972 8.07088457,3.240972 9.05824457,3.996972 C9.05824457,3.996972 10.0457417,5.824042 10.0457417,8.078042 C10.0457417,8.078042 9.46288457,9.093042 7.947456,9.141972 M10.5943131,-2.8e-05 L1.40574171,-2.8e-05 C0.630884571,-2.8e-05 2.74285714e-05,0.644042 2.74285714e-05,1.441972 L2.74285714e-05,10.905972 C2.74285714e-05,11.704042 0.630884571,12.348042 1.40574171,12.348042 L9.18174171,12.348042 L8.81824457,11.053042 L9.69602743,11.885972 L10.5257417,12.669972 L12.0000274,13.999972 L12.0000274,10.905972 L12.0000274,10.205972 L12.0000274,1.441972 C12.0000274,0.644042 11.3691017,-2.8e-05 10.5943131,-2.8e-05" id="Fill-5" fill="#FFFFFF" mask="url(#mask-3)"></path>
                            </g>
                        </g>
                    </g>
                </g>
            </g>
        </g>
    </g>
</svg>