<?xml version="1.0" encoding="UTF-8"?>
<svg width="26px" height="26px" viewBox="0 0 26 26" version="1.1" xmlns="http://www.w3.org/2000/svg" xmlns:xlink="http://www.w3.org/1999/xlink">
    <!-- Generator: Sketch 46.2 (44496) - http://www.bohemiancoding.com/sketch -->
    <title>ICON_API</title>
    <desc>Created with Sketch.</desc>
    <defs>
        <linearGradient x1="97.8794643%" y1="2.12053571%" x2="0%" y2="100%" id="linearGradient-1">
            <stop stop-color="#4598FF" offset="0%"></stop>
            <stop stop-color="#2A43C1" offset="100%"></stop>
        </linearGradient>
    </defs>
    <g id="Symbols" stroke="none" stroke-width="1" fill="none" fill-rule="evenodd">
        <g id="FOOTER" transform="translate(-1162.000000, -140.000000)">
            <g id="API">
                <g transform="translate(1134.000000, 140.000000)">
                    <g id="ICON_API" transform="translate(28.000000, 0.000000)">
                        <circle id="Purple-gradient-circle" fill="url(#linearGradient-1)" cx="13" cy="13" r="13"></circle>
                        <path d="M15.9776226,20.7919834 L15.9776226,13.8590187 L17.807876,12.9661368 L20.3392151,14.3842433 L20.3925235,14.3842433 C20.2853683,17.2729786 18.5078847,19.6884865 15.9776226,20.7919834 L15.9776226,20.7919834 Z M8.33137384,12.9136144 L8.33137384,12.9136144 L10.2160126,13.8590187 L10.2160126,20.7919834 C7.63136516,19.7415342 5.80057321,17.2729786 5.74672639,14.3842433 L5.85442003,14.3842433 L8.33137384,12.9136144 Z M10.4852467,7.55632343 C10.5385551,7.55632343 10.5385551,7.55632343 10.4852467,7.55632343 L12.8545069,8.86938493 L12.8545069,21.3697305 C12.0468046,21.3697305 11.3462574,21.2121631 10.6467872,20.9495508 L10.6467872,13.7539737 C10.6467872,13.7014513 10.5929404,13.5964064 10.5385551,13.5964064 L8.43906749,12.5459572 L8.43906749,9.9723566 C8.43906749,9.91983414 8.3846822,9.81478922 8.33137384,9.81478922 L7.63136516,9.39460954 C8.49291431,8.55425017 9.46161864,7.92398065 10.4852467,7.55632343 L10.4852467,7.55632343 Z M17.7545677,9.86731168 C17.7001824,9.91983414 17.646874,9.9723566 17.646874,10.0248791 L17.646874,12.5984796 L15.6540032,13.5964064 C15.6006948,13.6489288 15.5463095,13.7014513 15.5463095,13.7539737 L15.5463095,20.8970283 C14.8463008,21.1596406 14.0385985,21.317208 13.2852815,21.317208 L13.2852815,8.92190739 L15.6540032,7.60884589 C16.7853249,8.08154803 17.7001824,8.71181755 18.4545764,9.49965446 L17.7545677,9.86731168 Z M22.9233241,9.86731168 L20.5002171,8.44920525 C20.4469088,8.39668279 20.3392151,8.39668279 20.2853683,8.44920525 L18.9930446,9.1845197 C18.9930446,9.1845197 18.9930446,9.13199724 18.9391978,9.13199724 C18.1314954,8.23911541 17.054559,7.50380097 15.8155436,6.97857636 L15.7083885,6.97857636 L15.7083885,4.61506565 C15.7083885,4.56254319 15.6540032,4.45749827 15.6006948,4.45749827 L13.1775878,3.03939185 C13.123741,2.98686938 13.0160474,2.98686938 12.9616621,3.03939185 L10.4852467,4.45749827 C10.4313999,4.51002073 10.3775531,4.56254319 10.3775531,4.61506565 L10.3775531,6.87353144 L10.3237063,6.87353144 C9.13907617,7.29371113 8.00829291,8.02902557 7.09289694,9.02695232 L7.03851165,9.07947478 L5.80057321,8.39668279 C5.74672639,8.34416033 5.63903275,8.34416033 5.58518592,8.39668279 L3.10823211,9.81478922 C3.05438529,9.86731168 3,9.91983414 3,9.9723566 L3,11.0228058 L3,11.7055978 L3,12.756047 C3,12.8085695 3.05438529,12.9136144 3.10823211,12.9136144 L5.10056453,14.0691085 C5.0467177,14.121631 5.0467177,14.1741534 5.0467177,14.2266759 C5.10056453,18.5335176 8.65391631,22 13.0698942,22 C17.4853336,22 21.0386854,18.4809952 21.0386854,14.2266759 C21.0386854,14.1741534 21.0386854,14.121631 20.985377,14.0691085 L22.8700158,12.9661368 C22.9233241,12.9136144 22.9777094,12.8610919 22.9777094,12.8085695 L22.9777094,10.0248791 C23.0315562,9.9723566 22.9777094,9.86731168 22.9233241,9.86731168 L22.9233241,9.86731168 Z" fill="#E6ECF2"></path>
                    </g>
                </g>
            </g>
        </g>
    </g>
</svg>