<?xml version="1.0" encoding="UTF-8"?>
<svg width="162px" height="32px" viewBox="0 0 162 32" version="1.1" xmlns="http://www.w3.org/2000/svg" xmlns:xlink="http://www.w3.org/1999/xlink">
    <!-- Generator: Sketch 47.1 (45422) - http://www.bohemiancoding.com/sketch -->
    <title>Logo</title>
    <desc>Created with Sketch.</desc>
    <defs></defs>
    <g id="Page-1" stroke="none" stroke-width="1" fill="none" fill-rule="evenodd">
        <g id="02a_Transaction-information" transform="translate(-41.000000, -44.000000)">
            <g id="HEADER" transform="translate(20.000000, 20.000000)">
                <g id="Logo" transform="translate(21.000000, 24.000000)">
                    <polygon id="Path" fill="#BEEB00" points="61.36 20.12 51.68 8.6 49.12 8.6 49.12 23 51.28 23 51.28 11.48 60.96 23 63.52 23 63.52 8.6 61.36 8.6"></polygon>
                    <polygon id="Path" fill="#BEEB00" points="79.0204545 8.6 65.8204545 8.6 65.8204545 23 79.0204545 23 79.0204545 20.84 67.9804545 20.84 67.9804545 16.88 76.8604545 16.88 76.8604545 14.72 67.9804545 14.72 67.9804545 10.76 79.0204545 10.76"></polygon>
                    <path d="M83.6209091,8.6 L92.8209091,8.6 C94.2609091,8.6 95.4209091,9.76 95.4209091,11.2 L95.4209091,20.4 C95.4209091,21.84 94.2609091,23 92.8209091,23 L83.6209091,23 C82.1809091,23 81.0209091,21.84 81.0209091,20.4 L81.0209091,11.2 C81.0209091,9.76 82.1809091,8.6 83.6209091,8.6 Z M83.6209091,20.84 L92.8209091,20.84 C93.0609091,20.84 93.2609091,20.64 93.2609091,20.4 L93.2609091,11.2 C93.2609091,10.96 93.0609091,10.76 92.8209091,10.76 L83.6209091,10.76 C83.3809091,10.76 83.1809091,10.96 83.1809091,11.2 L83.1809091,20.4 C83.1809091,20.64 83.3809091,20.84 83.6209091,20.84 Z" id="Combined-Shape" fill="#BEEB00"></path>
                    <path d="M111.941364,11 C111.941364,9.66 110.881364,8.6 109.541364,8.6 L99.9413636,8.6 C98.6013636,8.6 97.5413636,9.66 97.5413636,11 L97.5413636,14.22 C97.5413636,15.54 98.6013636,16.62 99.9413636,16.62 L109.541364,16.62 C109.961364,16.62 110.321364,16.96 110.321364,17.38 L110.321364,20.6 C110.321364,21.02 109.961364,21.38 109.541364,21.38 L99.9413636,21.38 C99.5213636,21.38 99.1613636,21.02 99.1613636,20.6 L99.1613636,20.04 L97.5413636,20.04 L97.5413636,20.6 C97.5413636,21.94 98.6013636,23 99.9413636,23 L109.541364,23 C110.881364,23 111.941364,21.94 111.941364,20.6 L111.941364,17.38 C111.941364,16.06 110.881364,14.98 109.541364,14.98 L99.9413636,14.98 C99.5213636,14.98 99.1613636,14.64 99.1613636,14.22 L99.1613636,11 C99.1613636,10.58 99.5213636,10.22 99.9413636,10.22 L109.541364,10.22 C109.961364,10.22 110.321364,10.58 110.321364,11 L110.321364,11.56 L111.941364,11.56 L111.941364,11 Z" id="Path" fill="#FFFFFF"></path>
                    <path d="M128.461818,10.22 L128.461818,8.6 L116.501818,8.6 C115.161818,8.6 114.101818,9.66 114.101818,11 L114.101818,20.6 C114.101818,21.94 115.161818,23 116.501818,23 L128.461818,23 L128.461818,21.38 L116.501818,21.38 C116.081818,21.38 115.721818,21.02 115.721818,20.6 L115.721818,11 C115.721818,10.58 116.081818,10.22 116.501818,10.22 L128.461818,10.22 Z" id="Path" fill="#FFFFFF"></path>
                    <path d="M133.002273,8.6 L142.602273,8.6 C143.942273,8.6 145.002273,9.66 145.002273,11 L145.002273,23 L143.382273,23 L143.382273,17.74 L132.222273,17.74 L132.222273,23 L130.602273,23 L130.602273,11 C130.602273,9.66 131.662273,8.6 133.002273,8.6 Z M132.222273,16.12 L143.382273,16.12 L143.382273,11 C143.382273,10.58 143.022273,10.22 142.602273,10.22 L133.002273,10.22 C132.582273,10.22 132.222273,10.58 132.222273,11 L132.222273,16.12 Z" id="Combined-Shape" fill="#FFFFFF"></path>
                    <polygon id="Path" fill="#FFFFFF" points="160.082727 21.16 149.522727 8.6 147.302727 8.6 147.302727 23 148.922727 23 148.922727 10.44 159.482727 23 161.702727 23 161.702727 8.6 160.082727 8.6"></polygon>
                    <g id="ICON_Logo-icon" fill="#FFFFFF">
                        <polygon id="Fill-22" points="37 22 32.3334835 27 23 27 32.3334835 17"></polygon>
                        <polygon id="Fill-24" points="28 12.8072765 23.8633972 8.61455307 28 4.42142483 23.5002172 0.228701367 19 4.42142483 14.7452334 0 10 4.42142483 23.5002172 17"></polygon>
                        <polygon id="Fill-26" points="4.74988536 10 19 23.199915 9.49977071 32 0 32 9.49977071 23.199915 0 14.3998301"></polygon>
                    </g>
                </g>
            </g>
        </g>
    </g>
</svg>